<svg width="48" height="48" viewBox="0 0 48 48" fill="none" xmlns="http://www.w3.org/2000/svg">
<g clip-path="url(#clip0_2_26)">
<path d="M37.6653 48H10.3347C4.62667 48 0 43.3733 0 37.6653V23.292L20 0H37.664C43.3733 0 48 4.62667 48 10.3347V37.664C48 43.3733 43.3733 48 37.6653 48Z" fill="url(#paint0_radial_2_26)"/>
<path d="M20 0L0 23.292C5.76667 30.96 19.7507 36.332 28.9173 27.916C34.2507 21.2493 31.168 10.332 27.1667 6.74933C25.1573 4.94933 22.752 2.36 20 0Z" fill="#1A5CF9"/>
<path d="M20 0L0 20.9107V23.292C6.772 28.5627 17.34 30.6387 24.7507 23.8333C30.084 17.1667 27.0013 6.24933 23 2.66667C22.1507 1.90667 21.1307 0.98 20 0Z" fill="#21AAF5"/>
<path d="M0 16.636V20.9107C6.248 23.544 13.7533 23.532 19.4173 18.3333C23.716 12.96 22.7107 4.82933 20 0H15.8L0 16.636Z" fill="#25E0F2"/>
<path d="M10.3347 0C4.62667 0 0 4.62667 0 10.3347V16.636C4.63467 17.1453 9.40667 16.024 13.3053 12.444C16.1307 8.912 16.5853 4.19333 15.8 0H10.3347Z" fill="#18FFFF"/>
<path d="M8.81068 11.8267C8.81068 11.8267 17.9214 25.596 25.5814 30.2533C22.6827 31.1853 16.3893 34.9933 5.41602 28.264C8.21068 32.0947 13.1587 39.7773 25.2707 39.0533C29.5147 38.8467 32.1027 37.5 34.484 36.5693C36.8654 35.6387 39.1427 35.7413 41.1094 39.2613C41.524 36.052 41.6267 33.0493 38.3147 29.6333C38.3147 29.6333 41.5894 17.1493 27.6467 7.29866C30.5454 13.096 32.224 16.3653 30.8613 24.3533C27.756 22.2827 16.2867 13.0467 13.6987 10.044C15.5627 13.3573 20.924 20.6253 22.7867 22.4893C19.4747 20.212 8.81068 11.8267 8.81068 11.8267Z" fill="black"/>
</g>
<defs>
<radialGradient id="paint0_radial_2_26" cx="0" cy="0" r="1" gradientUnits="userSpaceOnUse" gradientTransform="translate(23.9216 -2.11774) scale(72.5313 43.8379)">
<stop offset="0.2023" stop-color="#27F5F1"/>
<stop offset="0.2899" stop-color="#25E2EE"/>
<stop offset="0.4676" stop-color="#20B1E7"/>
<stop offset="0.7169" stop-color="#1963DB"/>
<stop offset="0.8569" stop-color="#1434D4"/>
<stop offset="1" stop-color="#0015B5"/>
</radialGradient>
<clipPath id="clip0_2_26">
<rect width="48" height="48" fill="white"/>
</clipPath>
</defs>
</svg>
